# xmcd CD database file generated by OrangeCD 5.2
#
# Track frame offsets:
#	180
#	12176
#	22813
#	38634
#	51527
#	68847
#	81385
#	90691
#	99680
#	113329
#	125780
#	139215
#	151735
#	165152
#
# Disc length: 2408 seconds
#
# Revision: 0
# Processed by: cddbd v1.5PL3 Copyright (c) Steve Scherf et al.
# Submitted via: OrangeCD 5.2
#
DISCID=aa09660e
DTITLE=Summer Church - Gospel Songs for Fiddle and Banjo
DYEAR=1994
DGENRE=Gospel
TTITLE0=Summer Church
TTITLE1=Do Lord
TTITLE2=Tis So Sweet
TTITLE3=I Want Jesus To Walk With Me
TTITLE4=Two White Horses
TTITLE5=Swing Low
TTITLE6=Morning by Morning
TTITLE7=Just A Closer Walk
TTITLE8=We Give Thanks To Thee
TTITLE9=Wayfaring Stranger
TTITLE10=I Love To Twll The Story
TTITLE11=Goin' Fishin' For Jesus
TTITLE12=I Surrender All
TTITLE13=Power In The Blood - Fly Away
EXTD=
EXTT0=
EXTT1=
EXTT2=
EXTT3=
EXTT4=
EXTT5=
EXTT6=
EXTT7=
EXTT8=
EXTT9=
EXTT10=
EXTT11=
EXTT12=
EXTT13=
PLAYORDER=
